<?xml version='1.0' encoding='UTF-8'?>
<svg xmlns="http://www.w3.org/2000/svg" width="1705" height="760" viewBox="0 55 1705 760"><defs><style>
.title{fill:#1f2937;font:700 34px Inter,ui-sans-serif,system-ui,-apple-system,BlinkMacSystemFont,"Segoe UI",sans-serif}.subtitle{fill:#5b6b7d;font:500 16px Inter,ui-sans-serif,system-ui,-apple-system,BlinkMacSystemFont,"Segoe UI",sans-serif}.lbl{fill:#1f2937;font:700 18px Inter,ui-sans-serif,system-ui,-apple-system,BlinkMacSystemFont,"Segoe UI",sans-serif}.sub{fill:#5b6b7d;font:500 13px Inter,ui-sans-serif,system-ui,-apple-system,BlinkMacSystemFont,"Segoe UI",sans-serif}.tag{font:700 11px Inter,ui-sans-serif,system-ui,-apple-system,BlinkMacSystemFont,"Segoe UI",sans-serif}.legend{fill:#1f2937;font:600 12px Inter,ui-sans-serif,system-ui,-apple-system,BlinkMacSystemFont,"Segoe UI",sans-serif}.edgeLabel{fill:#1f2937;font:600 12px Inter,ui-sans-serif,system-ui,-apple-system,BlinkMacSystemFont,"Segoe UI",sans-serif}
</style><marker id="arrow-icp" markerHeight="10" markerWidth="10" markerUnits="strokeWidth" orient="auto" refX="10" refY="4"><path d="M0,0 L10,4 L0,8 z" fill="#c88911"/></marker><marker id="arrow-cycles" markerHeight="10" markerWidth="10" markerUnits="strokeWidth" orient="auto" refX="10" refY="4"><path d="M0,0 L10,4 L0,8 z" fill="#178a64"/></marker><marker id="arrow-data" markerHeight="10" markerWidth="10" markerUnits="strokeWidth" orient="auto" refX="10" refY="4"><path d="M0,0 L10,4 L0,8 z" fill="#3a74b4"/></marker><marker id="arrow-control" markerHeight="10" markerWidth="10" markerUnits="strokeWidth" orient="auto" refX="10" refY="4"><path d="M0,0 L10,4 L0,8 z" fill="#6b7280"/></marker><marker id="arrow-jup" markerHeight="10" markerWidth="10" markerUnits="strokeWidth" orient="auto" refX="10" refY="4"><path d="M0,0 L10,4 L0,8 z" fill="#8a56c2"/></marker><marker id="arrow-io" markerHeight="10" markerWidth="10" markerUnits="strokeWidth" orient="auto" refX="10" refY="4"><path d="M0,0 L10,4 L0,8 z" fill="#b44bd1"/></marker><marker id="arrow-handwritten" markerWidth="18" markerHeight="18" markerUnits="userSpaceOnUse" orient="auto" refX="14" refY="9"><path d="M 2 2.5 C 6.5 4.5, 11.5 7.2, 14 9 C 11.1 11.1, 6.2 14.0, 2.4 15.8" fill="none" stroke="#9b9b9b" stroke-width="3.25" stroke-linecap="round" stroke-linejoin="round"/></marker></defs><title>Suite overview</title><desc>Overview of Jupiter Faucet commitment, maturity routing, payout destinations, observability, recovery controls, jUP and IO rewards, and liquid staking.</desc><rect fill="#fff" width="1705" height="760" x="0" y="55"/><g><circle cx="95" cy="440" fill="#f5f9ff" r="45" stroke="#346fe3" stroke-width="2.6"/><circle cx="95" cy="436" fill="none" r="9" stroke="#346fe3" stroke-width="2.2"/><path d="M 77,458 C 82,444 108,444 113,458" fill="none" stroke="#346fe3" stroke-linecap="round" stroke-width="2.2"/></g><g><rect fill="#eef4f2" height="90" rx="22" ry="22" stroke="#15946a" stroke-width="2.2" width="240" x="340" y="70"/><rect fill="#eef4f2" height="22" rx="11" ry="11" stroke="#15946a" stroke-width="1.5" width="118" x="352" y="59"/><text class="tag" fill="#15946a" text-anchor="middle" x="411.0" y="73">Jupiter Faucet</text><rect fill="none" height="20" rx="5" ry="5" stroke="#15946a" stroke-width="2.2" width="24" x="354" y="106"/><line stroke="#15946a" stroke-linecap="round" stroke-width="2" x1="359" x2="373" y1="113" y2="113"/><line stroke="#15946a" stroke-linecap="round" stroke-width="2" x1="359" x2="373" y1="119" y2="119"/><text class="lbl" dominant-baseline="middle" x="392" y="112">Frontend</text><text class="sub" dominant-baseline="middle" x="392" y="132">certified site</text></g><g><rect fill="#eef4f2" height="90" rx="22" ry="22" stroke="#15946a" stroke-width="2.2" width="230" x="650" y="70"/><rect fill="#eef4f2" height="22" rx="11" ry="11" stroke="#15946a" stroke-width="1.5" width="118" x="662" y="59"/><text class="tag" fill="#15946a" text-anchor="middle" x="721.0" y="73">Jupiter Faucet</text><rect fill="none" height="20" rx="5" ry="5" stroke="#15946a" stroke-width="2.2" width="24" x="664" y="106"/><line stroke="#15946a" stroke-linecap="round" stroke-width="2" x1="669" x2="683" y1="113" y2="113"/><line stroke="#15946a" stroke-linecap="round" stroke-width="2" x1="669" x2="683" y1="119" y2="119"/><text class="lbl" dominant-baseline="middle" x="702" y="112">Historian</text><text class="sub" dominant-baseline="middle" x="702" y="132">history + cycles samples</text></g><g><rect fill="#fafbfc" height="90" rx="22" ry="22" stroke="#8a95a3" stroke-width="2.2" width="260" x="1290" y="70"/><rect fill="#fafbfc" height="22" rx="11" ry="11" stroke="#8a95a3" stroke-width="1.5" width="62" x="1302" y="59"/><text class="tag" fill="#8a95a3" text-anchor="middle" x="1333.0" y="73">Target</text><rect fill="none" height="20" rx="5" ry="5" stroke="#8a95a3" stroke-width="2.2" width="24" x="1304" y="106"/><line stroke="#8a95a3" stroke-linecap="round" stroke-width="2" x1="1309" x2="1323" y1="113" y2="113"/><line stroke="#8a95a3" stroke-linecap="round" stroke-width="2" x1="1309" x2="1323" y1="119" y2="119"/><text class="lbl" dominant-baseline="middle" x="1342" y="112">Target canisters</text><text class="sub" dominant-baseline="middle" x="1342" y="132">declared destinations</text></g><g><rect fill="#f4f7fb" height="90" rx="22" ry="22" stroke="#5c6f87" stroke-width="2.2" width="220" x="800" y="245"/><rect fill="#f4f7fb" height="22" rx="11" ry="11" stroke="#5c6f87" stroke-width="1.5" width="83" x="812" y="234"/><text class="tag" fill="#5c6f87" text-anchor="middle" x="853.5" y="248">IC system</text><rect fill="none" height="20" rx="5" ry="5" stroke="#5c6f87" stroke-width="2.2" width="24" x="814" y="281"/><line stroke="#5c6f87" stroke-linecap="round" stroke-width="2" x1="819" x2="833" y1="288" y2="288"/><line stroke="#5c6f87" stroke-linecap="round" stroke-width="2" x1="819" x2="833" y1="294" y2="294"/><text class="lbl" dominant-baseline="middle" x="852" y="287">ICP Index</text><text class="sub" dominant-baseline="middle" x="852" y="307">transfer history</text></g><g><polygon fill="#fff7e8" points="240,395 450,395 470,440.0 450,485 240,485 220,440.0" stroke="#bf7a14" stroke-width="2.0"/><rect fill="#fff7e8" height="22" rx="11" ry="11" stroke="#bf7a14" stroke-width="1.5" width="96" x="232" y="384"/><text class="tag" fill="#bf7a14" text-anchor="middle" x="280" y="398">NNS Neuron</text><line stroke="#bf7a14" stroke-linecap="round" stroke-width="1.8" x1="250" x2="250" y1="440.0" y2="429.0"/><circle cx="250" cy="429.0" fill="#bf7a14" r="2.1"/><line stroke="#bf7a14" stroke-linecap="round" stroke-width="1.8" x1="250" x2="260" y1="440.0" y2="435.0"/><circle cx="260" cy="435.0" fill="#bf7a14" r="2.1"/><line stroke="#bf7a14" stroke-linecap="round" stroke-width="1.8" x1="250" x2="260" y1="440.0" y2="445.0"/><circle cx="260" cy="445.0" fill="#bf7a14" r="2.1"/><line stroke="#bf7a14" stroke-linecap="round" stroke-width="1.8" x1="250" x2="250" y1="440.0" y2="451.0"/><circle cx="250" cy="451.0" fill="#bf7a14" r="2.1"/><line stroke="#bf7a14" stroke-linecap="round" stroke-width="1.8" x1="250" x2="240" y1="440.0" y2="445.0"/><circle cx="240" cy="445.0" fill="#bf7a14" r="2.1"/><line stroke="#bf7a14" stroke-linecap="round" stroke-width="1.8" x1="250" x2="240" y1="440.0" y2="435.0"/><circle cx="240" cy="435.0" fill="#bf7a14" r="2.1"/><circle cx="250" cy="440.0" fill="none" r="3.8" stroke="#bf7a14" stroke-width="1.8"/><text class="lbl" dominant-baseline="middle" x="278" y="438.0">Faucet neuron</text><text class="sub" dominant-baseline="middle" x="278" y="458.0">committed stake</text></g><g><rect fill="#eef4f2" height="90" rx="22" ry="22" stroke="#15946a" stroke-width="2.2" width="230" x="500" y="395"/><rect fill="#eef4f2" height="22" rx="11" ry="11" stroke="#15946a" stroke-width="1.5" width="118" x="512" y="384"/><text class="tag" fill="#15946a" text-anchor="middle" x="571.0" y="398">Jupiter Faucet</text><g><rect fill="#f4f6f8" height="20" rx="10" ry="10" stroke="#8f98a3" stroke-width="1.2" width="84" x="632" y="405"/><text class="tag" fill="#5b6b7d" text-anchor="middle" x="674" y="419">blackholed</text></g><rect fill="none" height="20" rx="5" ry="5" stroke="#15946a" stroke-width="2.2" width="24" x="514" y="431"/><line stroke="#15946a" stroke-linecap="round" stroke-width="2" x1="519" x2="533" y1="438" y2="438"/><line stroke="#15946a" stroke-linecap="round" stroke-width="2" x1="519" x2="533" y1="444" y2="444"/><text class="lbl" dominant-baseline="middle" x="552" y="437">Disburser</text><text class="sub" dominant-baseline="middle" x="552" y="457">routes neuron maturity</text></g><g><rect fill="#eef4f2" height="90" rx="22" ry="22" stroke="#15946a" stroke-width="2.2" width="230" x="850" y="395"/><g><rect fill="#f4f6f8" height="20" rx="10" ry="10" stroke="#8f98a3" stroke-width="1.2" width="84" x="982" y="405"/><text class="tag" fill="#5b6b7d" text-anchor="middle" x="1024" y="419">blackholed</text></g><rect fill="none" height="20" rx="5" ry="5" stroke="#15946a" stroke-width="2.2" width="24" x="864" y="431"/><line stroke="#15946a" stroke-linecap="round" stroke-width="2" x1="869" x2="883" y1="438" y2="438"/><line stroke="#15946a" stroke-linecap="round" stroke-width="2" x1="869" x2="883" y1="444" y2="444"/><text class="lbl" dominant-baseline="middle" x="902" y="437">Faucet</text><text class="sub" dominant-baseline="middle" x="902" y="457">pays declared targets</text></g><g><rect fill="#f4f7fb" height="90" rx="22" ry="22" stroke="#5c6f87" stroke-width="2.2" width="220" x="1330" y="395"/><rect fill="#f4f7fb" height="22" rx="11" ry="11" stroke="#5c6f87" stroke-width="1.5" width="83" x="1342" y="384"/><text class="tag" fill="#5c6f87" text-anchor="middle" x="1383.5" y="398">IC system</text><rect fill="none" height="20" rx="5" ry="5" stroke="#5c6f87" stroke-width="2.2" width="24" x="1344" y="431"/><line stroke="#5c6f87" stroke-linecap="round" stroke-width="2" x1="1349" x2="1363" y1="438" y2="438"/><line stroke="#5c6f87" stroke-linecap="round" stroke-width="2" x1="1349" x2="1363" y1="444" y2="444"/><text class="lbl" dominant-baseline="middle" x="1382" y="437">CMC</text><text class="sub" dominant-baseline="middle" x="1382" y="457">mints cycles</text></g><g transform="translate(0,70)"><polygon fill="#fff7e8" points="1250,600 1470,600 1490,645.0 1470,690 1250,690 1230,645.0" stroke="#bf7a14" stroke-width="2.0"/><rect fill="#fff7e8" height="22" rx="11" ry="11" stroke="#bf7a14" stroke-width="1.5" width="96" x="1242" y="589"/><text class="tag" fill="#bf7a14" text-anchor="middle" x="1290" y="603">NNS Neuron</text><line stroke="#bf7a14" stroke-linecap="round" stroke-width="1.8" x1="1260" x2="1260" y1="645.0" y2="634.0"/><circle cx="1260" cy="634.0" fill="#bf7a14" r="2.1"/><line stroke="#bf7a14" stroke-linecap="round" stroke-width="1.8" x1="1260" x2="1270" y1="645.0" y2="640.0"/><circle cx="1270" cy="640.0" fill="#bf7a14" r="2.1"/><line stroke="#bf7a14" stroke-linecap="round" stroke-width="1.8" x1="1260" x2="1270" y1="645.0" y2="650.0"/><circle cx="1270" cy="650.0" fill="#bf7a14" r="2.1"/><line stroke="#bf7a14" stroke-linecap="round" stroke-width="1.8" x1="1260" x2="1260" y1="645.0" y2="656.0"/><circle cx="1260" cy="656.0" fill="#bf7a14" r="2.1"/><line stroke="#bf7a14" stroke-linecap="round" stroke-width="1.8" x1="1260" x2="1250" y1="645.0" y2="650.0"/><circle cx="1250" cy="650.0" fill="#bf7a14" r="2.1"/><line stroke="#bf7a14" stroke-linecap="round" stroke-width="1.8" x1="1260" x2="1250" y1="645.0" y2="640.0"/><circle cx="1250" cy="640.0" fill="#bf7a14" r="2.1"/><circle cx="1260" cy="645.0" fill="none" r="3.8" stroke="#bf7a14" stroke-width="1.8"/><text class="lbl" dominant-baseline="middle" x="1288" y="643.0">Target neuron</text><text class="sub" dominant-baseline="middle" x="1288" y="663.0">specified neuron</text></g><g><polygon fill="#eef4f2" points="56,600 134,600 146,615 134,630 56,630 44,615" stroke="#15946a" stroke-width="1.9"/><rect fill="#eef4f2" height="17" rx="8.5" ry="8.5" stroke="#15946a" stroke-width="1.3" width="80" x="12" y="591"/><text class="tag" fill="#15946a" text-anchor="middle" x="52" y="602.5">SNS Neuron</text><line stroke="#15946a" stroke-linecap="round" stroke-width="1.5" x1="62" x2="62" y1="615" y2="607"/><circle cx="62" cy="607" fill="#15946a" r="1.8"/><line stroke="#15946a" stroke-linecap="round" stroke-width="1.5" x1="62" x2="69" y1="615" y2="611"/><circle cx="69" cy="611" fill="#15946a" r="1.8"/><line stroke="#15946a" stroke-linecap="round" stroke-width="1.5" x1="62" x2="69" y1="615" y2="619"/><circle cx="69" cy="619" fill="#15946a" r="1.8"/><line stroke="#15946a" stroke-linecap="round" stroke-width="1.5" x1="62" x2="62" y1="615" y2="623"/><circle cx="62" cy="623" fill="#15946a" r="1.8"/><line stroke="#15946a" stroke-linecap="round" stroke-width="1.5" x1="62" x2="55" y1="615" y2="619"/><circle cx="55" cy="619" fill="#15946a" r="1.8"/><line stroke="#15946a" stroke-linecap="round" stroke-width="1.5" x1="62" x2="55" y1="615" y2="611"/><circle cx="55" cy="611" fill="#15946a" r="1.8"/><circle cx="62" cy="615" fill="none" r="3.2" stroke="#15946a" stroke-width="1.5"/><text class="lbl" dominant-baseline="middle" font-size="14" x="82" y="614.5">jUP</text></g><g><rect fill="#eef4f2" height="90" rx="22" ry="22" stroke="#15946a" stroke-width="2.2" width="230" x="390" y="570"/><rect fill="#eef4f2" height="22" rx="11" ry="11" stroke="#15946a" stroke-width="1.5" width="118" x="402" y="559"/><text class="tag" fill="#15946a" text-anchor="middle" x="461.0" y="573">Jupiter Faucet</text><rect fill="none" height="20" rx="5" ry="5" stroke="#15946a" stroke-width="2.2" width="24" x="404" y="606"/><line stroke="#15946a" stroke-linecap="round" stroke-width="2" x1="409" x2="423" y1="613" y2="613"/><line stroke="#15946a" stroke-linecap="round" stroke-width="2" x1="409" x2="423" y1="619" y2="619"/><text class="lbl" dominant-baseline="middle" x="442" y="612">SNS Rewards</text><text class="sub" dominant-baseline="middle" x="442" y="632">future committer rewards</text></g><g><rect fill="#eef4f2" height="90" rx="22" ry="22" stroke="#15946a" stroke-width="2.2" width="230" x="690" y="655"/><rect fill="none" height="20" rx="5" ry="5" stroke="#15946a" stroke-width="2.2" width="24" x="704" y="691"/><line stroke="#15946a" stroke-linecap="round" stroke-width="2" x1="709" x2="723" y1="698" y2="698"/><line stroke="#15946a" stroke-linecap="round" stroke-width="2" x1="709" x2="723" y1="704" y2="704"/><text class="lbl" dominant-baseline="middle" x="742" y="697">Lifeline</text><text class="sub" dominant-baseline="middle" x="742" y="717">reserved rescue controller</text></g><path d="M 340,115 L 95,115 L 95,395" fill="none" marker-end="url(#arrow-data)" stroke-dasharray="7 6" stroke="#3a74b4" stroke-linecap="round" stroke-linejoin="round" stroke-width="3.2"/><path d="M 650,115 L 580,115" fill="none" marker-end="url(#arrow-data)" stroke-dasharray="7 6" stroke="#3a74b4" stroke-linecap="round" stroke-linejoin="round" stroke-width="3.2"/><path d="M 1290,115 L 880,115" fill="none" marker-end="url(#arrow-data)" stroke-dasharray="7 6" stroke="#3a74b4" stroke-linecap="round" stroke-linejoin="round" stroke-width="3.2"/><path d="M 840,245 L 840,160" fill="none" marker-end="url(#arrow-data)" stroke-dasharray="7 6" stroke="#3a74b4" stroke-linecap="round" stroke-linejoin="round" stroke-width="3.2"/><path d="M 940,335 L 940,395" fill="none" marker-end="url(#arrow-data)" stroke-dasharray="7 6" stroke="#3a74b4" stroke-linecap="round" stroke-linejoin="round" stroke-width="3.2"/><path d="M 140,440 L 220,440" fill="none" marker-end="url(#arrow-icp)" stroke="#c88911" stroke-linecap="round" stroke-linejoin="round" stroke-width="3.2"/><path d="M 470,440 L 500,440" fill="none" marker-end="url(#arrow-icp)" stroke="#c88911" stroke-linecap="round" stroke-linejoin="round" stroke-width="3.2"/><path d="M 730,440 L 850,440" fill="none" marker-end="url(#arrow-icp)" stroke="#c88911" stroke-linecap="round" stroke-linejoin="round" stroke-width="3.2"/><path d="M 515,485 L 515,570" fill="none" marker-end="url(#arrow-icp)" stroke="#c88911" stroke-linecap="round" stroke-linejoin="round" stroke-width="3.2"/><path d="M 1080,440 L 1330,440" fill="none" marker-end="url(#arrow-icp)" stroke="#c88911" stroke-linecap="round" stroke-linejoin="round" stroke-width="3.2"/><path d="M 1080,395 L 1080,160 L 1290,160" fill="none" marker-end="url(#arrow-icp)" stroke="#c88911" stroke-linecap="round" stroke-linejoin="round" stroke-width="3.2"/><path d="M 1080,485 L 1080,715 L 1230,715" fill="none" marker-end="url(#arrow-icp)" stroke="#c88911" stroke-linecap="round" stroke-linejoin="round" stroke-width="3.2"/><path d="M 1440,395 L 1440,160" fill="none" marker-end="url(#arrow-cycles)" stroke="#178a64" stroke-linecap="round" stroke-linejoin="round" stroke-width="3.2"/><path d="M 720,485 L 720,655" fill="none" marker-end="url(#arrow-control)" stroke-dasharray="3 7" stroke="#6b7280" stroke-linecap="round" stroke-linejoin="round" stroke-width="3.2"/><path d="M 855,485 L 855,655" fill="none" marker-end="url(#arrow-control)" stroke-dasharray="3 7" stroke="#6b7280" stroke-linecap="round" stroke-linejoin="round" stroke-width="3.2"/><path d="M 390,615 L 146,615" fill="none" marker-end="url(#arrow-jup)" stroke-dasharray="10 6" stroke="#8a56c2" stroke-linecap="round" stroke-linejoin="round" stroke-width="3.2"/><path d="M 95,600 L 95,485" fill="none" marker-end="url(#arrow-jup)" stroke-dasharray="10 6" stroke="#8a56c2" stroke-linecap="round" stroke-linejoin="round" stroke-width="3.2"/><path d="M 555,660 L 555,712" fill="none" marker-end="url(#arrow-icp)" stroke="#c88911" stroke-linecap="round" stroke-linejoin="round" stroke-width="3.2"/><path d="M 455,712 L 455,660" fill="none" marker-end="url(#arrow-jup)" stroke-dasharray="10 6" stroke="#8a56c2" stroke-linecap="round" stroke-linejoin="round" stroke-width="3.2"/><g><rect fill="#f7efff" height="66" rx="16" ry="16" stroke="#9b4bc6" stroke-width="1.9" width="198" x="422" y="712"/><rect fill="#f7efff" height="18" rx="9" ry="9" stroke="#9b4bc6" stroke-width="1.3" width="88" x="434" y="703"/><text class="tag" fill="#9b4bc6" text-anchor="middle" x="478" y="715">IO Protocol</text><rect fill="none" height="16" rx="4" ry="4" stroke="#9b4bc6" stroke-width="1.9" width="20" x="436" y="738"/><line stroke="#9b4bc6" stroke-linecap="round" stroke-width="1.6" x1="440" x2="452" y1="743" y2="743"/><line stroke="#9b4bc6" stroke-linecap="round" stroke-width="1.6" x1="440" x2="452" y1="748" y2="748"/><text class="lbl" dominant-baseline="middle" font-size="15" x="470" y="741">Liquid staking</text><text class="sub" dominant-baseline="middle" font-size="11.5" x="470" y="756">permissioned minting</text></g><g transform="translate(122,250) rotate(-90)"><rect fill="#f4f6f8" height="24" rx="12" ry="12" stroke="#d6dee8" stroke-width="1.2" width="152" x="-76" y="-12"/><text class="edgeLabel" dominant-baseline="middle" text-anchor="middle" x="0" y="1">verify protocol behaviour</text></g><g transform="translate(1160,95)"><rect fill="#f4f6f8" height="24" rx="12" ry="12" stroke="#d6dee8" stroke-width="1.2" width="210" x="-105.0" y="-12"/><text class="edgeLabel" dominant-baseline="middle" text-anchor="middle" x="0" y="1">periodic cycles balance samples</text></g><g transform="translate(270,585)"><rect fill="#f4f6f8" height="24" rx="12" ry="12" stroke="#d6dee8" stroke-width="1.2" width="122" x="-61.0" y="-12"/><text class="edgeLabel" dominant-baseline="middle" text-anchor="middle" x="0" y="1">jUP + IO rewards</text></g><g transform="translate(153,423)"><rect fill="#f4f6f8" height="24" rx="12" ry="12" stroke="#d6dee8" stroke-width="1.2" width="88" x="-44.0" y="-12"/><text class="edgeLabel" dominant-baseline="middle" text-anchor="middle" x="0" y="1">commit ICP</text></g><g transform="translate(485,423)"><rect fill="#f4f6f8" height="24" rx="12" ry="12" stroke="#d6dee8" stroke-width="1.2" width="72" x="-36.0" y="-12"/><text class="edgeLabel" dominant-baseline="middle" text-anchor="middle" x="0" y="1">maturity</text></g><g transform="translate(790,423)"><rect fill="#f4f6f8" height="24" rx="12" ry="12" stroke="#d6dee8" stroke-width="1.2" width="110" x="-55.0" y="-12"/><text class="edgeLabel" dominant-baseline="middle" text-anchor="middle" x="0" y="1">base maturity</text></g><g transform="translate(1128,142)"><rect fill="#f4f6f8" height="24" rx="12" ry="12" stroke="#d6dee8" stroke-width="1.2" width="72" x="-36.0" y="-12"/><text class="edgeLabel" dominant-baseline="middle" text-anchor="middle" x="0" y="1">raw ICP</text></g><g transform="translate(1205,423)"><rect fill="#f4f6f8" height="24" rx="12" ry="12" stroke="#d6dee8" stroke-width="1.2" width="104" x="-52" y="-12"/><text class="edgeLabel" dominant-baseline="middle" text-anchor="middle" x="0" y="1">direct top-ups</text></g><g transform="translate(1440,260)"><rect fill="#f4f6f8" height="24" rx="12" ry="12" stroke="#d6dee8" stroke-width="1.2" width="62" x="-31.0" y="-12"/><text class="edgeLabel" dominant-baseline="middle" text-anchor="middle" x="0" y="1">cycles</text></g><g transform="translate(1170,695)"><rect fill="#f4f6f8" height="24" rx="12" ry="12" stroke="#d6dee8" stroke-width="1.2" width="72" x="-36.0" y="-12"/><text class="edgeLabel" dominant-baseline="middle" text-anchor="middle" x="0" y="1">raw ICP</text></g><g transform="translate(515,535)"><rect fill="#f4f6f8" height="24" rx="12" ry="12" stroke="#d6dee8" stroke-width="1.2" width="150" x="-75.0" y="-12"/><text class="edgeLabel" dominant-baseline="middle" text-anchor="middle" x="0" y="1">age bonus maturity</text></g><g transform="translate(788,590)"><rect fill="#f4f6f8" height="40" rx="12" ry="12" stroke="#d6dee8" stroke-width="1.2" width="286" x="-143" y="-20"/><text class="edgeLabel" dominant-baseline="middle" text-anchor="middle" x="0" y="-5">Automatic control grant if Disburser/Faucet</text><text class="edgeLabel" dominant-baseline="middle" text-anchor="middle" x="0" y="11">detect a breaking system API change</text></g><g transform="translate(575,686)"><rect fill="#f4f6f8" height="24" rx="12" ry="12" stroke="#d6dee8" stroke-width="1.2" width="54" x="-27.0" y="-12"/><text class="edgeLabel" dominant-baseline="middle" text-anchor="middle" x="0" y="1">ICP</text></g><g transform="translate(430,686)"><rect fill="#f4f6f8" height="24" rx="12" ry="12" stroke="#d6dee8" stroke-width="1.2" width="54" x="-27.0" y="-12"/><text class="edgeLabel" dominant-baseline="middle" text-anchor="middle" x="0" y="1">IO</text></g><g><rect fill="#fff" fill-opacity="0.96" height="20" rx="8" ry="8" width="54" x="68" y="493"/><text class="lbl" text-anchor="middle" x="95" y="508">User / Protocol</text></g><g><rect fill="#f4f7fb" height="22" rx="11" ry="11" stroke="#5c6f87" stroke-width="1.5" width="83" x="812" y="234"/><text class="tag" fill="#5c6f87" text-anchor="middle" x="853.5" y="248">IC system</text></g><g><rect fill="#eef4f2" height="22" rx="11" ry="11" stroke="#15946a" stroke-width="1.5" width="112" x="862" y="384"/><text class="tag" fill="#15946a" text-anchor="middle" x="918" y="398">Jupiter Faucet</text></g><g><rect fill="#eef4f2" height="22" rx="11" ry="11" stroke="#15946a" stroke-width="1.5" width="112" x="702" y="644"/><text class="tag" fill="#15946a" text-anchor="middle" x="758" y="658">Jupiter Faucet</text></g><g id="annotation-one-commitment"><path d="M 214 303 C 196 311, 182 324, 169 341 C 158 356, 150 371, 145 385" fill="none" marker-end="url(#arrow-handwritten)" stroke="#9b9b9b" stroke-linecap="round" stroke-linejoin="round" stroke-width="4.05"/><path d="M 216 305 C 198 313, 184 326, 171 343 C 160 358, 152 373, 147 387" fill="none" stroke="#c9c9c9" stroke-linecap="round" stroke-linejoin="round" stroke-width="0.85"/><text x="178.5" y="289.5" style="fill:none;stroke:#d6d6d6;stroke-width:0.7;stroke-linejoin:round;opacity:0.7;font-family:'Comic Neue','Bradley Hand','Segoe Print','Comic Sans MS',cursive;font-size:24px;font-weight:700;letter-spacing:0.15px;">One commitment,</text><text x="178" y="289" style="fill:#9a9a9a;font-family:'Comic Neue','Bradley Hand','Segoe Print','Comic Sans MS',cursive;font-size:24px;font-weight:700;letter-spacing:0.15px;">One commitment,</text></g><g id="annotation-perpetual-funding"><path d="M 448 332 C 458 339, 465 347, 470 357 C 474 365, 476 373, 475 382" fill="none" marker-end="url(#arrow-handwritten)" stroke="#9b9b9b" stroke-linecap="round" stroke-linejoin="round" stroke-width="4.05"/><path d="M 450 334 C 460 341, 467 349, 472 359 C 476 367, 478 375, 477 384" fill="none" stroke="#c9c9c9" stroke-linecap="round" stroke-linejoin="round" stroke-width="0.85"/><text x="225.5" y="318.5" style="fill:none;stroke:#d6d6d6;stroke-width:0.7;stroke-linejoin:round;opacity:0.7;font-family:'Comic Neue','Bradley Hand','Segoe Print','Comic Sans MS',cursive;font-size:24px;font-weight:700;letter-spacing:0.15px;">perpetual funding</text><text x="225" y="318" style="fill:#9a9a9a;font-family:'Comic Neue','Bradley Hand','Segoe Print','Comic Sans MS',cursive;font-size:24px;font-weight:700;letter-spacing:0.15px;">perpetual funding</text></g><g id="annotation-immutable-flow"><path d="M 620 310 C 637 319, 652 332, 662 347 C 669 358, 671 370, 669 386" fill="none" marker-end="url(#arrow-handwritten)" stroke="#9b9b9b" stroke-linecap="round" stroke-linejoin="round" stroke-width="4.05"/><path d="M 622 312 C 639 321, 654 334, 664 349 C 671 360, 673 372, 671 388" fill="none" stroke="#c9c9c9" stroke-linecap="round" stroke-linejoin="round" stroke-width="0.85"/><text x="515.5" y="300.5" style="fill:none;stroke:#d6d6d6;stroke-width:0.7;stroke-linejoin:round;opacity:0.7;font-family:'Comic Neue','Bradley Hand','Segoe Print','Comic Sans MS',cursive;font-size:24px;font-weight:700;letter-spacing:0.15px;">Immutable flow</text><text x="515" y="300" style="fill:#9a9a9a;font-family:'Comic Neue','Bradley Hand','Segoe Print','Comic Sans MS',cursive;font-size:24px;font-weight:700;letter-spacing:0.15px;">Immutable flow</text></g><g id="annotation-commitment-memo"><text x="1166.4" y="520.4" style="fill:none;stroke:#d6d6d6;stroke-width:0.55;stroke-linejoin:round;opacity:0.65;font-family:'Comic Neue','Bradley Hand','Segoe Print','Comic Sans MS',cursive;font-size:18px;font-weight:700;letter-spacing:0.1px;">Commitment memo</text><text x="1166" y="520" style="fill:#9a9a9a;font-family:'Comic Neue','Bradley Hand','Segoe Print','Comic Sans MS',cursive;font-size:18px;font-weight:700;letter-spacing:0.1px;">Commitment memo</text><text x="1144.4" y="542.4" style="fill:none;stroke:#d6d6d6;stroke-width:0.55;stroke-linejoin:round;opacity:0.65;font-family:'Comic Neue','Bradley Hand','Segoe Print','Comic Sans MS',cursive;font-size:18px;font-weight:700;letter-spacing:0.1px;">identifies target</text><text x="1144" y="542" style="fill:#9a9a9a;font-family:'Comic Neue','Bradley Hand','Segoe Print','Comic Sans MS',cursive;font-size:18px;font-weight:700;letter-spacing:0.1px;">identifies target</text><text x="1126.4" y="564.4" style="fill:none;stroke:#d6d6d6;stroke-width:0.55;stroke-linejoin:round;opacity:0.65;font-family:'Comic Neue','Bradley Hand','Segoe Print','Comic Sans MS',cursive;font-size:18px;font-weight:700;letter-spacing:0.1px;">canister/neuron &amp; mode</text><text x="1126" y="564" style="fill:#9a9a9a;font-family:'Comic Neue','Bradley Hand','Segoe Print','Comic Sans MS',cursive;font-size:18px;font-weight:700;letter-spacing:0.1px;">canister/neuron &amp; mode</text><text x="1174.4" y="586.4" style="fill:none;stroke:#d6d6d6;stroke-width:0.55;stroke-linejoin:round;opacity:0.65;font-family:'Comic Neue','Bradley Hand','Segoe Print','Comic Sans MS',cursive;font-size:18px;font-weight:700;letter-spacing:0.1px;">(cycles or ICP)</text><text x="1174" y="586" style="fill:#9a9a9a;font-family:'Comic Neue','Bradley Hand','Segoe Print','Comic Sans MS',cursive;font-size:18px;font-weight:700;letter-spacing:0.1px;">(cycles or ICP)</text></g><g id="annotation-or-top"><text x="1106.5" y="414.5" transform="rotate(-7 1106.5 414.5)" style="fill:none;stroke:#d6d6d6;stroke-width:0.65;stroke-linejoin:round;opacity:0.7;font-family:'Comic Neue','Bradley Hand','Segoe Print','Comic Sans MS',cursive;font-size:24px;font-weight:700;letter-spacing:0.1px;">or</text><text x="1106" y="414" transform="rotate(-7 1106 414)" style="fill:#9a9a9a;font-family:'Comic Neue','Bradley Hand','Segoe Print','Comic Sans MS',cursive;font-size:24px;font-weight:700;letter-spacing:0.1px;">or</text></g><g id="annotation-or-bottom"><text x="1100.5" y="485.5" transform="rotate(6 1100.5 485.5)" style="fill:none;stroke:#d6d6d6;stroke-width:0.65;stroke-linejoin:round;opacity:0.7;font-family:'Comic Neue','Bradley Hand','Segoe Print','Comic Sans MS',cursive;font-size:24px;font-weight:700;letter-spacing:0.1px;">or</text><text x="1100" y="485" transform="rotate(6 1100 485)" style="fill:#9a9a9a;font-family:'Comic Neue','Bradley Hand','Segoe Print','Comic Sans MS',cursive;font-size:24px;font-weight:700;letter-spacing:0.1px;">or</text></g><g id="annotation-jup-governance">
  <path d="M 228 742 C 250 747, 276 748, 294 740 C 321 728, 329 707, 317 687 C 297 656, 252 649, 205 646 C 169 643, 141 642, 120 637" fill="none" marker-end="url(#arrow-handwritten)" stroke="#9b9b9b" stroke-linecap="round" stroke-linejoin="round" stroke-width="4.05"/><path d="M 230 744 C 252 749, 278 750, 296 742 C 323 730, 331 709, 319 689 C 299 659, 254 652, 207 649 C 171 646, 143 645, 122 640" fill="none" stroke="#c9c9c9" stroke-linecap="round" stroke-linejoin="round" stroke-width="0.85"/><text x="18.5" y="748.5" style="fill:none;stroke:#d6d6d6;stroke-width:0.7;stroke-linejoin:round;opacity:0.7;font-family:'Comic Neue','Bradley Hand','Segoe Print','Comic Sans MS',cursive;font-size:24px;font-weight:700;letter-spacing:0.15px;">Governs Jupiter</text><text x="18" y="748" style="fill:#9a9a9a;font-family:'Comic Neue','Bradley Hand','Segoe Print','Comic Sans MS',cursive;font-size:24px;font-weight:700;letter-spacing:0.15px;">Governs Jupiter</text><text x="34.5" y="777.5" style="fill:none;stroke:#d6d6d6;stroke-width:0.7;stroke-linejoin:round;opacity:0.7;font-family:'Comic Neue','Bradley Hand','Segoe Print','Comic Sans MS',cursive;font-size:24px;font-weight:700;letter-spacing:0.15px;">Faucet protocol</text><text x="34" y="777" style="fill:#9a9a9a;font-family:'Comic Neue','Bradley Hand','Segoe Print','Comic Sans MS',cursive;font-size:24px;font-weight:700;letter-spacing:0.15px;">Faucet protocol</text></g><line stroke="#d9e2ec" stroke-width="1.5" x1="50" x2="1850" y1="922" y2="922"/><text class="legend" x="60" y="946">Legend</text><line marker-end="url(#arrow-icp)" stroke="#c88911" stroke-width="3.2" x1="135" x2="169" y1="940" y2="940"/><text class="legend" x="182" y="945">ICP</text><line marker-end="url(#arrow-cycles)" stroke="#178a64" stroke-width="3.2" x1="228" x2="262" y1="940" y2="940"/><text class="legend" x="275" y="945">Cycles</text><line marker-end="url(#arrow-data)" stroke-dasharray="7 6" stroke="#3a74b4" stroke-width="3.2" x1="342" x2="376" y1="940" y2="940"/><text class="legend" x="389" y="945">Observed data</text><line marker-end="url(#arrow-control)" stroke-dasharray="3 7" stroke="#6b7280" stroke-width="3.2" x1="505" x2="539" y1="940" y2="940"/><text class="legend" x="552" y="945">Control</text><line marker-end="url(#arrow-jup)" stroke-dasharray="10 6" stroke="#8a56c2" stroke-width="3.2" x1="630" x2="664" y1="940" y2="940"/><text class="legend" x="677" y="945">Rewards</text><path id="relay-split-arrow" d="M 1194,115 L 1194,246" fill="none" marker-end="url(#arrow-data)" stroke-dasharray="7 6" stroke="#3a74b4" stroke-linecap="round" stroke-linejoin="round" stroke-width="3.2"/><path id="raw-icp-to-relay" d="M 1080,266 L 1148,266" fill="none" marker-end="url(#arrow-icp)" stroke="#c88911" stroke-linecap="round" stroke-linejoin="round" stroke-width="3.2"/><path id="relay-to-cmc" d="M 1240,266 L 1275,266 L 1275,410 L 1330,410" fill="none" marker-end="url(#arrow-icp)" stroke="#c88911" stroke-linecap="round" stroke-linejoin="round" stroke-width="3.2"/><g id="relay-node"><rect fill="#eef4f2" height="40" rx="14" ry="14" stroke="#15946a" stroke-width="2.0" width="92" x="1148" y="246"/><rect fill="#eef4f2" height="16" rx="8" ry="8" stroke="#15946a" stroke-width="1.3" width="78" x="1155" y="238"/><text x="1194.0" y="249" fill="#15946a" text-anchor="middle" style="font-family:Inter, system-ui, sans-serif; font-size:11px; font-weight:700;">Jupiter Faucet</text><rect fill="none" height="12" rx="3" ry="3" stroke="#15946a" stroke-width="1.8" width="14" x="1162" y="259"/><line stroke="#15946a" stroke-linecap="round" stroke-width="1.7" x1="1165" x2="1174" y1="264" y2="264"/><line stroke="#15946a" stroke-linecap="round" stroke-width="1.7" x1="1165" x2="1174" y1="268" y2="268"/><text x="1184" y="267.0" dominant-baseline="middle" style="font-family:Inter, system-ui, sans-serif; font-size:16px; font-weight:700; fill:#26313f;">Relay</text></g><g id="annotation-or-relay-split"><text x="1110.5" y="212.5" transform="rotate(-7 1110.5 212.5)" style="fill:none;stroke:#d6d6d6;stroke-width:0.65;stroke-linejoin:round;opacity:0.7;font-family:'Comic Neue','Bradley Hand','Segoe Print','Comic Sans MS',cursive;font-size:24px;font-weight:700;letter-spacing:0.1px;">or</text><text x="1110" y="212" transform="rotate(-7 1110 212)" style="fill:#9a9a9a;font-family:'Comic Neue','Bradley Hand','Segoe Print','Comic Sans MS',cursive;font-size:24px;font-weight:700;letter-spacing:0.1px;">or</text></g><g id="label-managed-topups" transform="translate(1304,332) rotate(-90)"><rect fill="#f4f6f8" height="24" rx="12" ry="12" stroke="#d6dee8" stroke-width="1.2" width="122" x="-61" y="-12"/><text class="edgeLabel" dominant-baseline="middle" text-anchor="middle" x="0" y="1">managed top-ups</text></g></svg>
