<?xml version='1.0' encoding='UTF-8'?>
<svg xmlns="http://www.w3.org/2000/svg" xmlns:ev="http://www.w3.org/2001/xml-events" xmlns:xlink="http://www.w3.org/1999/xlink" baseProfile="full" height="1320" version="1.1" viewBox="0 100 1840 1320" width="1840"><defs><style type="text/css">
        .title { fill:#1f2937; font:700 34px Inter, ui-sans-serif, system-ui, -apple-system, BlinkMacSystemFont, "Segoe UI", sans-serif; }
        .subtitle { fill:#5b6b7d; font:500 17px Inter, ui-sans-serif, system-ui, -apple-system, BlinkMacSystemFont, "Segoe UI", sans-serif; }
        .lbl { fill:#1f2937; font:700 18px Inter, ui-sans-serif, system-ui, -apple-system, BlinkMacSystemFont, "Segoe UI", sans-serif; }
        .sub { fill:#5b6b7d; font:500 13px Inter, ui-sans-serif, system-ui, -apple-system, BlinkMacSystemFont, "Segoe UI", sans-serif; }
        .tiny { fill:#5b6b7d; font:600 12px Inter, ui-sans-serif, system-ui, -apple-system, BlinkMacSystemFont, "Segoe UI", sans-serif; }
        .tag { font:700 11px Inter, ui-sans-serif, system-ui, -apple-system, BlinkMacSystemFont, "Segoe UI", sans-serif; }
        .legend { fill:#1f2937; font:600 12px Inter, ui-sans-serif, system-ui, -apple-system, BlinkMacSystemFont, "Segoe UI", sans-serif; }
        .groupTitle { fill:#1f2937; font:700 16px Inter, ui-sans-serif, system-ui, -apple-system, BlinkMacSystemFont, "Segoe UI", sans-serif; }
        .laneLabel { fill:#1f2937; font:700 14px Inter, ui-sans-serif, system-ui, -apple-system, BlinkMacSystemFont, "Segoe UI", sans-serif; }
        .splitPct { fill:#1f2937; font:700 14px Inter, ui-sans-serif, system-ui, -apple-system, BlinkMacSystemFont, "Segoe UI", sans-serif; }
        .collector { fill:#5b6b7d; font:700 13px Inter, ui-sans-serif, system-ui, -apple-system, BlinkMacSystemFont, "Segoe UI", sans-serif; letter-spacing:.3px; }
        </style><marker id="arrow-icp" markerHeight="10" markerUnits="strokeWidth" markerWidth="10" orient="auto" refX="10" refY="4"><path d="M0,0 L10,4 L0,8 z" fill="#c88911"/></marker><marker id="arrow-cycles" markerHeight="10" markerUnits="strokeWidth" markerWidth="10" orient="auto" refX="10" refY="4"><path d="M0,0 L10,4 L0,8 z" fill="#178a64"/></marker><marker id="arrow-data" markerHeight="10" markerUnits="strokeWidth" markerWidth="10" orient="auto" refX="10" refY="4"><path d="M0,0 L10,4 L0,8 z" fill="#3a74b4"/></marker><marker id="arrow-jup" markerHeight="10" markerUnits="strokeWidth" markerWidth="10" orient="auto" refX="10" refY="4"><path d="M0,0 L10,4 L0,8 z" fill="#8a56c2"/></marker></defs><title>Relay allocation loop</title><desc>Relay allocation with direct default-account and subaccount-one funding, split-routing subaccounts 10 through 90, the Jupiter Faucet, managed-canister cycles top-ups and observed cycles balances, and configured surplus recipients.</desc><rect fill="#ffffff" height="1420" width="1840" x="0" y="0"/><rect fill="#f5f9f6" height="128" rx="28" ry="28" stroke="#15946a" stroke-width="2.3" width="780" x="330" y="150"/><rect fill="#f5f9f6" height="24" rx="12" ry="12" stroke="#15946a" stroke-width="1.6" width="112" x="350" y="138"/><text class="tag" fill="#15946a" text-anchor="middle" x="406" y="154">Jupiter Faucet</text><text class="lbl" text-anchor="middle" x="720" y="204">Jupiter Faucet Neuron &amp;</text><text class="lbl" text-anchor="middle" x="720" y="230">Supporting Protocol Canisters</text><g><circle cx="90" cy="555" fill="#eef4ff" r="44" stroke="#346fe3" stroke-width="2.5"/><circle cx="90" cy="551" fill="none" r="8" stroke="#346fe3" stroke-width="2.5"/><path d="M74,573 C78,559 102,559 106,573" fill="none" stroke="#346fe3" stroke-linecap="round" stroke-width="2.5"/><text class="lbl" text-anchor="middle" x="90" y="623">Contributor</text><text class="sub" text-anchor="middle" x="90" y="646">funding source</text></g><rect fill="#eef4f2" height="850" rx="26" ry="26" stroke="#15946a" stroke-width="2.3" width="780" x="330" y="385"/><rect fill="#eef4f2" height="24" rx="12" ry="12" stroke="#15946a" stroke-width="1.6" width="108" x="344" y="373"/><text class="tag" fill="#15946a" text-anchor="middle" x="398" y="389">Jupiter Relay</text><g><rect fill="none" height="20" rx="5" ry="5" stroke="#15946a" stroke-width="2.2" width="24" x="353" y="427"/><line stroke="#15946a" stroke-linecap="round" stroke-width="2.0" x1="358" x2="372" y1="434" y2="434"/><line stroke="#15946a" stroke-linecap="round" stroke-width="2.0" x1="358" x2="372" y1="440" y2="440"/></g><text class="lbl" x="405" y="432">Relay</text><text class="sub" x="405" y="454">allocates each round</text><rect fill="#f6faf8" height="614" rx="18" ry="18" stroke="#d7e1dc" stroke-width="1.2" width="744" x="348" y="603"/><text class="laneLabel" x="364" y="627">Split-routing accounts</text><text class="tiny" x="364" y="646">select one; each deposit divides between both destinations</text><rect fill="#f4f6f8" height="24" rx="12" ry="12" stroke="#d6dee8" stroke-width="1.2" width="112.0" x="734.0" y="645"/><text fill="#1f2937" font-family="Inter, ui-sans-serif, system-ui, -apple-system, BlinkMacSystemFont, &quot;Segoe UI&quot;, sans-serif" font-size="11" font-weight="600" text-anchor="middle" x="790" y="662">to subaccount 1</text><rect fill="#f4f6f8" height="24" rx="12" ry="12" stroke="#d6dee8" stroke-width="1.2" width="131.2" x="919.4" y="645"/><text fill="#1f2937" font-family="Inter, ui-sans-serif, system-ui, -apple-system, BlinkMacSystemFont, &quot;Segoe UI&quot;, sans-serif" font-size="11" font-weight="600" text-anchor="middle" x="985" y="662">to default account</text><text class="laneLabel" x="362" y="500">subaccount 1</text><line stroke="#d7e1dc" stroke-width="1" x1="348" x2="1092" y1="524" y2="524"/><text class="laneLabel" x="362" y="570">default account</text><line stroke="#d7e1dc" stroke-width="1" x1="348" x2="1092" y1="594" y2="594"/><text class="laneLabel" x="362" y="685">subaccount 10</text><line stroke="#d7e1dc" stroke-width="1" x1="348" x2="1092" y1="709" y2="709"/><text class="laneLabel" x="362" y="743">subaccount 20</text><line stroke="#d7e1dc" stroke-width="1" x1="348" x2="1092" y1="767" y2="767"/><text class="laneLabel" x="362" y="801">subaccount 30</text><line stroke="#d7e1dc" stroke-width="1" x1="348" x2="1092" y1="825" y2="825"/><text class="laneLabel" x="362" y="859">subaccount 40</text><line stroke="#d7e1dc" stroke-width="1" x1="348" x2="1092" y1="883" y2="883"/><text class="laneLabel" x="362" y="917">subaccount 50</text><line stroke="#d7e1dc" stroke-width="1" x1="348" x2="1092" y1="941" y2="941"/><text class="laneLabel" x="362" y="975">subaccount 60</text><line stroke="#d7e1dc" stroke-width="1" x1="348" x2="1092" y1="999" y2="999"/><text class="laneLabel" x="362" y="1033">subaccount 70</text><line stroke="#d7e1dc" stroke-width="1" x1="348" x2="1092" y1="1057" y2="1057"/><text class="laneLabel" x="362" y="1091">subaccount 80</text><line stroke="#d7e1dc" stroke-width="1" x1="348" x2="1092" y1="1115" y2="1115"/><text class="laneLabel" x="362" y="1149">subaccount 90</text><line stroke="#c88911" stroke-linecap="round" stroke-width="3.2" x1="455" x2="790" y1="500" y2="500"/><line stroke="#c88911" stroke-linecap="round" stroke-width="3.2" x1="495" x2="1110" y1="570" y2="570"/><path d="M 790,1138 L 790,500" fill="none" marker-end="url(#arrow-icp)" stroke="#c88911" stroke-linecap="round" stroke-linejoin="round" stroke-width="3.0"/><line stroke="white" stroke-linecap="round" stroke-width="8.0" x1="790" x2="790" y1="560.0" y2="580.0"/><line stroke="#c88911" stroke-linecap="round" stroke-width="3.0" x1="790" x2="790" y1="560.0" y2="580.0"/><path d="M 985,1160 L 985,570" fill="none" marker-end="url(#arrow-icp)" stroke="#c88911" stroke-linecap="round" stroke-linejoin="round" stroke-width="3.0"/><circle cx="790" cy="500" fill="#c88911" r="5" stroke="white" stroke-width="1.5"/><circle cx="985" cy="570" fill="#c88911" r="5" stroke="white" stroke-width="1.5"/><g><rect fill="#f4f7fb" height="104" rx="22" ry="22" stroke="#5c6f87" stroke-width="2.2" width="220" x="1220" y="520"/><rect fill="#f4f7fb" height="22" rx="11" ry="11" stroke="#5c6f87" stroke-width="1.5" width="77" x="1232" y="509"/><text class="tag" fill="#5c6f87" text-anchor="middle" x="1270.5" y="523">IC system</text><rect fill="none" height="20" rx="5" ry="5" stroke="#5c6f87" stroke-width="2.2" width="24" x="1233" y="563.0"/><line stroke="#5c6f87" stroke-linecap="round" stroke-width="2.0" x1="1238" x2="1252" y1="570.0" y2="570.0"/><line stroke="#5c6f87" stroke-linecap="round" stroke-width="2.0" x1="1238" x2="1252" y1="576.0" y2="576.0"/><text class="lbl" x="1270" y="570.0">CMC</text><text class="sub" x="1270" y="588.0">cycles minting</text></g><rect fill="none" height="455" rx="22" ry="22" stroke="#9aa8bb" stroke-dasharray="8 8" stroke-width="1.8" width="275" x="1520" y="308"/><text class="groupTitle" x="1538" y="334">Managed canisters</text><g><rect fill="#fafbfc" height="48" rx="22" ry="22" stroke="#8a95a3" stroke-width="2.2" width="195" x="1562" y="433"/><rect fill="#fafbfc" height="22" rx="11" ry="11" stroke="#8a95a3" stroke-width="1.5" width="58" x="1574" y="422"/><text class="tag" fill="#8a95a3" text-anchor="middle" x="1603.0" y="436">Target</text><rect fill="none" height="20" rx="5" ry="5" stroke="#8a95a3" stroke-width="2.2" width="24" x="1575" y="448"/><line stroke="#8a95a3" stroke-linecap="round" stroke-width="2.0" x1="1580" x2="1594" y1="461" y2="461"/><line stroke="#8a95a3" stroke-linecap="round" stroke-width="2.0" x1="1580" x2="1594" y1="461" y2="461"/><text class="lbl" x="1612" y="463">Canister A</text></g><g><rect fill="#fafbfc" height="48" rx="22" ry="22" stroke="#8a95a3" stroke-width="2.2" width="195" x="1562" y="548"/><rect fill="#fafbfc" height="22" rx="11" ry="11" stroke="#8a95a3" stroke-width="1.5" width="58" x="1574" y="537"/><text class="tag" fill="#8a95a3" text-anchor="middle" x="1603.0" y="551">Target</text><rect fill="none" height="20" rx="5" ry="5" stroke="#8a95a3" stroke-width="2.2" width="24" x="1575" y="563"/><line stroke="#8a95a3" stroke-linecap="round" stroke-width="2.0" x1="1580" x2="1594" y1="576" y2="576"/><line stroke="#8a95a3" stroke-linecap="round" stroke-width="2.0" x1="1580" x2="1594" y1="576" y2="576"/><text class="lbl" x="1612" y="578">Canister B</text></g><g><rect fill="#fafbfc" height="48" rx="22" ry="22" stroke="#8a95a3" stroke-width="2.2" width="195" x="1562" y="663"/><rect fill="#fafbfc" height="22" rx="11" ry="11" stroke="#8a95a3" stroke-width="1.5" width="58" x="1574" y="652"/><text class="tag" fill="#8a95a3" text-anchor="middle" x="1603.0" y="666">Target</text><rect fill="none" height="20" rx="5" ry="5" stroke="#8a95a3" stroke-width="2.2" width="24" x="1575" y="678"/><line stroke="#8a95a3" stroke-linecap="round" stroke-width="2.0" x1="1580" x2="1594" y1="691" y2="691"/><line stroke="#8a95a3" stroke-linecap="round" stroke-width="2.0" x1="1580" x2="1594" y1="691" y2="691"/><text class="lbl" x="1612" y="693">Canister C</text></g><path d="M 1550,457 L 1550,687" fill="none" stroke="#178a64" stroke-linecap="round" stroke-linejoin="round" stroke-width="3.0"/><path d="M 1550,457 L 1562,457" fill="none" marker-end="url(#arrow-cycles)" stroke="#178a64" stroke-linecap="round" stroke-linejoin="round" stroke-width="2.6"/><path d="M 1550,572 L 1562,572" fill="none" marker-end="url(#arrow-cycles)" stroke="#178a64" stroke-linecap="round" stroke-linejoin="round" stroke-width="2.6"/><path d="M 1550,687 L 1562,687" fill="none" marker-end="url(#arrow-cycles)" stroke="#178a64" stroke-linecap="round" stroke-linejoin="round" stroke-width="2.6"/><path d="M 1520,405 L 1767,405 L 1767,687 M 1757,457 L 1767,457" fill="none" stroke="#3a74b4" stroke-dasharray="7 6" stroke-linecap="round" stroke-linejoin="round" stroke-width="2.5"/><path d="M 1757,572 L 1767,572" fill="none" stroke="#3a74b4" stroke-dasharray="7 6" stroke-linecap="round" stroke-linejoin="round" stroke-width="2.5"/><path d="M 1757,687 L 1767,687" fill="none" stroke="#3a74b4" stroke-dasharray="7 6" stroke-linecap="round" stroke-linejoin="round" stroke-width="2.5"/><rect fill="none" height="330" rx="22" ry="22" stroke="#9aa8bb" stroke-dasharray="8 8" stroke-width="1.8" width="560" x="1210" y="860"/><text class="groupTitle" x="1228" y="886">Configured surplus recipient(s)</text><text class="sub" x="1228" y="905">one or more destinations (up to 5)</text><path d="M 1248,950 L 1610,950" fill="none" stroke="#c88911" stroke-linecap="round" stroke-linejoin="round" stroke-width="3.0"/><g><polygon fill="#fff7e8" points="1265,985 1435,985 1455,1023.0 1435,1061 1265,1061 1245,1023.0" stroke="#bf7a14" stroke-width="2.0"/><rect fill="#fff7e8" height="22" rx="11" ry="11" stroke="#bf7a14" stroke-width="1.5" width="68" x="1257" y="974"/><text class="tag" fill="#bf7a14" text-anchor="middle" x="1291" y="988">Neuron</text><line stroke="#bf7a14" stroke-linecap="round" stroke-width="1.8" x1="1274" x2="1274" y1="1023.0" y2="1012.0"/><circle cx="1274" cy="1012.0" fill="#bf7a14" r="2.1"/><line stroke="#bf7a14" stroke-linecap="round" stroke-width="1.8" x1="1274" x2="1284" y1="1023.0" y2="1018.0"/><circle cx="1284" cy="1018.0" fill="#bf7a14" r="2.1"/><line stroke="#bf7a14" stroke-linecap="round" stroke-width="1.8" x1="1274" x2="1284" y1="1023.0" y2="1028.0"/><circle cx="1284" cy="1028.0" fill="#bf7a14" r="2.1"/><line stroke="#bf7a14" stroke-linecap="round" stroke-width="1.8" x1="1274" x2="1274" y1="1023.0" y2="1034.0"/><circle cx="1274" cy="1034.0" fill="#bf7a14" r="2.1"/><line stroke="#bf7a14" stroke-linecap="round" stroke-width="1.8" x1="1274" x2="1264" y1="1023.0" y2="1028.0"/><circle cx="1264" cy="1028.0" fill="#bf7a14" r="2.1"/><line stroke="#bf7a14" stroke-linecap="round" stroke-width="1.8" x1="1274" x2="1264" y1="1023.0" y2="1018.0"/><circle cx="1264" cy="1018.0" fill="#bf7a14" r="2.1"/><circle cx="1274" cy="1023.0" fill="none" r="3.8" stroke="#bf7a14" stroke-width="1.8"/><text class="lbl" x="1297" y="1021.0">DAO neuron</text></g><g><rect fill="#fbfcfd" height="72" rx="18" ry="18" stroke="#7b8794" stroke-width="2.0" width="235" x="1490" y="995"/><rect fill="#fbfcfd" height="20" rx="10" ry="10" stroke="#7b8794" stroke-width="1.4" width="70" x="1502" y="985"/><text class="tag" fill="#7b8794" text-anchor="middle" x="1537" y="998">Account</text><rect fill="none" height="18" rx="4" ry="4" stroke="#7b8794" stroke-width="2.0" width="26" x="1503" y="1012.0"/><line stroke="#7b8794" stroke-linecap="round" stroke-width="1.8" x1="1508" x2="1524" y1="1020.0" y2="1020.0"/><line stroke="#7b8794" stroke-linecap="round" stroke-width="1.8" x1="1508" x2="1519" y1="1025.0" y2="1025.0"/><text class="lbl" x="1542" y="1019.0">DAO treasury</text><text class="sub" x="1542" y="1037.0">treasury account</text></g><g transform="translate(-155,10)"><rect fill="#fafbfc" height="52" rx="18" ry="18" stroke="#8a95a3" stroke-width="2.0" width="235" x="1490" y="1075"/><rect fill="#fafbfc" height="20" rx="10" ry="10" stroke="#8a95a3" stroke-width="1.4" width="72" x="1502" y="1065"/><text class="tag" fill="#8a95a3" text-anchor="middle" x="1538" y="1078">Recipient</text><rect fill="none" height="18" rx="4" ry="4" stroke="#8a95a3" stroke-width="2.0" width="26" x="1503" y="1092.0"/><line stroke="#8a95a3" stroke-linecap="round" stroke-width="1.8" x1="1508" x2="1524" y1="1100.0" y2="1100.0"/><line stroke="#8a95a3" stroke-linecap="round" stroke-width="1.8" x1="1508" x2="1519" y1="1105.0" y2="1105.0"/><text class="lbl" x="1542" y="1099.0">Other recipient</text><text class="sub" x="1542" y="1117.0">account / canister / neuron</text></g><path d="M 1350,950 L 1350,985" fill="none" marker-end="url(#arrow-icp)" stroke="#c88911" stroke-linecap="round" stroke-linejoin="round" stroke-width="2.6"/><path d="M 1610,950 L 1610,985" fill="none" marker-end="url(#arrow-icp)" stroke="#c88911" stroke-linecap="round" stroke-linejoin="round" stroke-width="2.6"/><path d="M 1465,950 L 1465,1085" fill="none" marker-end="url(#arrow-icp)" stroke="#c88911" stroke-linecap="round" stroke-linejoin="round" stroke-width="2.6"/><path d="M 95,511 L 95,500 L 330,500" fill="none" marker-end="url(#arrow-icp)" stroke="#c88911" stroke-linecap="round" stroke-linejoin="round" stroke-width="3.2"/><rect fill="#f4f6f8" height="24" rx="12" ry="12" stroke="#d6dee8" stroke-width="1.2" width="163" x="153.5" y="469"/><text fill="#1f2937" font-family="Inter, ui-sans-serif, system-ui, -apple-system, BlinkMacSystemFont, &quot;Segoe UI&quot;, sans-serif" font-size="12" font-weight="600" text-anchor="middle" x="235" y="486">ICP into subaccount 1</text><path d="M 134,570 L 270,570 L 330,570" fill="none" marker-end="url(#arrow-icp)" stroke="#c88911" stroke-linecap="round" stroke-linejoin="round" stroke-width="3.2"/><rect fill="#f4f6f8" height="24" rx="12" ry="12" stroke="#d6dee8" stroke-width="1.2" width="184" x="143.0" y="539"/><text fill="#1f2937" font-family="Inter, ui-sans-serif, system-ui, -apple-system, BlinkMacSystemFont, &quot;Segoe UI&quot;, sans-serif" font-size="12" font-weight="600" text-anchor="middle" x="235" y="556">ICP into default account</text><path d="M 95,599 L 95,685 L 165,685 L 165,1149" fill="none" stroke="#c88911" stroke-linecap="round" stroke-linejoin="round" stroke-width="3.0"/><rect fill="#f4f6f8" height="24" rx="12" ry="12" stroke="#d6dee8" stroke-width="1.2" width="137" x="163.5" y="630"/><text fill="#1f2937" font-family="Inter, ui-sans-serif, system-ui, -apple-system, BlinkMacSystemFont, &quot;Segoe UI&quot;, sans-serif" font-size="11" font-weight="600" text-anchor="middle" x="232" y="647">choose one subaccount</text><path d="M 165,685 L 330,685" fill="none" marker-end="url(#arrow-icp)" stroke="#c88911" stroke-linecap="round" stroke-linejoin="round" stroke-width="3.0"/><line stroke="#c88911" stroke-linecap="round" stroke-width="3.0" x1="495" x2="610" y1="685" y2="685"/><circle cx="610" cy="685" fill="#c88911" r="4.2" stroke="white" stroke-width="1.5"/><path d="M 610,685 L 630,674 L 790,674" fill="none" stroke="#c88911" stroke-linecap="round" stroke-linejoin="round" stroke-width="2.2"/><text class="splitPct" x="672" y="669">90%</text><path d="M 610,685 L 630,696 L 985,696" fill="none" stroke="#c88911" stroke-linecap="round" stroke-linejoin="round" stroke-width="2.2"/><text class="splitPct" x="865" y="710">10%</text><circle cx="790" cy="674" fill="#c88911" r="3.5" stroke="white" stroke-width="1.5"/><circle cx="985" cy="696" fill="#c88911" r="3.5" stroke="white" stroke-width="1.5"/><path d="M 165,743 L 330,743" fill="none" marker-end="url(#arrow-icp)" stroke="#c88911" stroke-linecap="round" stroke-linejoin="round" stroke-width="3.0"/><line stroke="#c88911" stroke-linecap="round" stroke-width="3.0" x1="495" x2="610" y1="743" y2="743"/><circle cx="610" cy="743" fill="#c88911" r="4.2" stroke="white" stroke-width="1.5"/><path d="M 610,743 L 630,732 L 790,732" fill="none" stroke="#c88911" stroke-linecap="round" stroke-linejoin="round" stroke-width="2.2"/><text class="splitPct" x="672" y="727">80%</text><path d="M 610,743 L 630,754 L 985,754" fill="none" stroke="#c88911" stroke-linecap="round" stroke-linejoin="round" stroke-width="2.2"/><text class="splitPct" x="865" y="768">20%</text><circle cx="790" cy="732" fill="#c88911" r="3.5" stroke="white" stroke-width="1.5"/><circle cx="985" cy="754" fill="#c88911" r="3.5" stroke="white" stroke-width="1.5"/><path d="M 165,801 L 330,801" fill="none" marker-end="url(#arrow-icp)" stroke="#c88911" stroke-linecap="round" stroke-linejoin="round" stroke-width="3.0"/><line stroke="#c88911" stroke-linecap="round" stroke-width="3.0" x1="495" x2="610" y1="801" y2="801"/><circle cx="610" cy="801" fill="#c88911" r="4.2" stroke="white" stroke-width="1.5"/><path d="M 610,801 L 630,790 L 790,790" fill="none" stroke="#c88911" stroke-linecap="round" stroke-linejoin="round" stroke-width="2.2"/><text class="splitPct" x="672" y="785">70%</text><path d="M 610,801 L 630,812 L 985,812" fill="none" stroke="#c88911" stroke-linecap="round" stroke-linejoin="round" stroke-width="2.2"/><text class="splitPct" x="865" y="826">30%</text><circle cx="790" cy="790" fill="#c88911" r="3.5" stroke="white" stroke-width="1.5"/><circle cx="985" cy="812" fill="#c88911" r="3.5" stroke="white" stroke-width="1.5"/><path d="M 165,859 L 330,859" fill="none" marker-end="url(#arrow-icp)" stroke="#c88911" stroke-linecap="round" stroke-linejoin="round" stroke-width="3.0"/><line stroke="#c88911" stroke-linecap="round" stroke-width="3.0" x1="495" x2="610" y1="859" y2="859"/><circle cx="610" cy="859" fill="#c88911" r="4.2" stroke="white" stroke-width="1.5"/><path d="M 610,859 L 630,848 L 790,848" fill="none" stroke="#c88911" stroke-linecap="round" stroke-linejoin="round" stroke-width="2.2"/><text class="splitPct" x="672" y="843">60%</text><path d="M 610,859 L 630,870 L 985,870" fill="none" stroke="#c88911" stroke-linecap="round" stroke-linejoin="round" stroke-width="2.2"/><text class="splitPct" x="865" y="884">40%</text><circle cx="790" cy="848" fill="#c88911" r="3.5" stroke="white" stroke-width="1.5"/><circle cx="985" cy="870" fill="#c88911" r="3.5" stroke="white" stroke-width="1.5"/><path d="M 165,917 L 330,917" fill="none" marker-end="url(#arrow-icp)" stroke="#c88911" stroke-linecap="round" stroke-linejoin="round" stroke-width="3.0"/><line stroke="#c88911" stroke-linecap="round" stroke-width="3.0" x1="495" x2="610" y1="917" y2="917"/><circle cx="610" cy="917" fill="#c88911" r="4.2" stroke="white" stroke-width="1.5"/><path d="M 610,917 L 630,906 L 790,906" fill="none" stroke="#c88911" stroke-linecap="round" stroke-linejoin="round" stroke-width="2.2"/><text class="splitPct" x="672" y="901">50%</text><path d="M 610,917 L 630,928 L 985,928" fill="none" stroke="#c88911" stroke-linecap="round" stroke-linejoin="round" stroke-width="2.2"/><text class="splitPct" x="865" y="942">50%</text><circle cx="790" cy="906" fill="#c88911" r="3.5" stroke="white" stroke-width="1.5"/><circle cx="985" cy="928" fill="#c88911" r="3.5" stroke="white" stroke-width="1.5"/><path d="M 165,975 L 330,975" fill="none" marker-end="url(#arrow-icp)" stroke="#c88911" stroke-linecap="round" stroke-linejoin="round" stroke-width="3.0"/><line stroke="#c88911" stroke-linecap="round" stroke-width="3.0" x1="495" x2="610" y1="975" y2="975"/><circle cx="610" cy="975" fill="#c88911" r="4.2" stroke="white" stroke-width="1.5"/><path d="M 610,975 L 630,964 L 790,964" fill="none" stroke="#c88911" stroke-linecap="round" stroke-linejoin="round" stroke-width="2.2"/><text class="splitPct" x="672" y="959">40%</text><path d="M 610,975 L 630,986 L 985,986" fill="none" stroke="#c88911" stroke-linecap="round" stroke-linejoin="round" stroke-width="2.2"/><text class="splitPct" x="865" y="1000">60%</text><circle cx="790" cy="964" fill="#c88911" r="3.5" stroke="white" stroke-width="1.5"/><circle cx="985" cy="986" fill="#c88911" r="3.5" stroke="white" stroke-width="1.5"/><path d="M 165,1033 L 330,1033" fill="none" marker-end="url(#arrow-icp)" stroke="#c88911" stroke-linecap="round" stroke-linejoin="round" stroke-width="3.0"/><line stroke="#c88911" stroke-linecap="round" stroke-width="3.0" x1="495" x2="610" y1="1033" y2="1033"/><circle cx="610" cy="1033" fill="#c88911" r="4.2" stroke="white" stroke-width="1.5"/><path d="M 610,1033 L 630,1022 L 790,1022" fill="none" stroke="#c88911" stroke-linecap="round" stroke-linejoin="round" stroke-width="2.2"/><text class="splitPct" x="672" y="1017">30%</text><path d="M 610,1033 L 630,1044 L 985,1044" fill="none" stroke="#c88911" stroke-linecap="round" stroke-linejoin="round" stroke-width="2.2"/><text class="splitPct" x="865" y="1058">70%</text><circle cx="790" cy="1022" fill="#c88911" r="3.5" stroke="white" stroke-width="1.5"/><circle cx="985" cy="1044" fill="#c88911" r="3.5" stroke="white" stroke-width="1.5"/><path d="M 165,1091 L 330,1091" fill="none" marker-end="url(#arrow-icp)" stroke="#c88911" stroke-linecap="round" stroke-linejoin="round" stroke-width="3.0"/><line stroke="#c88911" stroke-linecap="round" stroke-width="3.0" x1="495" x2="610" y1="1091" y2="1091"/><circle cx="610" cy="1091" fill="#c88911" r="4.2" stroke="white" stroke-width="1.5"/><path d="M 610,1091 L 630,1080 L 790,1080" fill="none" stroke="#c88911" stroke-linecap="round" stroke-linejoin="round" stroke-width="2.2"/><text class="splitPct" x="672" y="1075">20%</text><path d="M 610,1091 L 630,1102 L 985,1102" fill="none" stroke="#c88911" stroke-linecap="round" stroke-linejoin="round" stroke-width="2.2"/><text class="splitPct" x="865" y="1116">80%</text><circle cx="790" cy="1080" fill="#c88911" r="3.5" stroke="white" stroke-width="1.5"/><circle cx="985" cy="1102" fill="#c88911" r="3.5" stroke="white" stroke-width="1.5"/><path d="M 165,1149 L 330,1149" fill="none" marker-end="url(#arrow-icp)" stroke="#c88911" stroke-linecap="round" stroke-linejoin="round" stroke-width="3.0"/><line stroke="#c88911" stroke-linecap="round" stroke-width="3.0" x1="495" x2="610" y1="1149" y2="1149"/><circle cx="610" cy="1149" fill="#c88911" r="4.2" stroke="white" stroke-width="1.5"/><path d="M 610,1149 L 630,1138 L 790,1138" fill="none" stroke="#c88911" stroke-linecap="round" stroke-linejoin="round" stroke-width="2.2"/><text class="splitPct" x="672" y="1133">10%</text><path d="M 610,1149 L 630,1160 L 985,1160" fill="none" stroke="#c88911" stroke-linecap="round" stroke-linejoin="round" stroke-width="2.2"/><text class="splitPct" x="865" y="1174">90%</text><circle cx="790" cy="1138" fill="#c88911" r="3.5" stroke="white" stroke-width="1.5"/><circle cx="985" cy="1160" fill="#c88911" r="3.5" stroke="white" stroke-width="1.5"/><path d="M 790,500 L 790,278" fill="none" marker-end="url(#arrow-icp)" stroke="#c88911" stroke-linecap="round" stroke-linejoin="round" stroke-width="3.2"/><rect fill="#f4f6f8" height="24" rx="12" ry="12" stroke="#d6dee8" stroke-width="1.2" width="86" x="807" y="347"/><text fill="#1f2937" font-family="Inter, ui-sans-serif, system-ui, -apple-system, BlinkMacSystemFont, &quot;Segoe UI&quot;, sans-serif" font-size="12" font-weight="600" text-anchor="middle" dominant-baseline="middle" x="850" y="359">commit ICP</text><path d="M 560,278 L 560,570" fill="none" marker-end="url(#arrow-icp)" stroke="#c88911" stroke-linecap="round" stroke-linejoin="round" stroke-width="3.2"/><rect fill="#f4f6f8" height="24" rx="12" ry="12" stroke="#d6dee8" stroke-width="1.2" width="132" x="587" y="347"/><text fill="#1f2937" font-family="Inter, ui-sans-serif, system-ui, -apple-system, BlinkMacSystemFont, &quot;Segoe UI&quot;, sans-serif" font-size="12" font-weight="600" text-anchor="middle" dominant-baseline="middle" x="653" y="359">future minted ICP</text><line stroke="white" stroke-linecap="round" stroke-width="8.2" x1="560" x2="560" y1="489" y2="511"/><line stroke="#c88911" stroke-linecap="round" stroke-width="3.2" x1="560" x2="560" y1="489" y2="511"/><circle cx="560" cy="570" fill="#c88911" r="5" stroke="white" stroke-width="1.5"/><path d="M 330,225 L 80,225 L 80,511" fill="none" marker-end="url(#arrow-jup)" stroke="#8a56c2" stroke-linecap="round" stroke-linejoin="round" stroke-width="3.0"/><rect fill="#f4f6f8" height="24" rx="12" ry="12" stroke="#d6dee8" stroke-width="1.2" width="93" x="118.5" y="197"/><text fill="#1f2937" font-family="Inter, ui-sans-serif, system-ui, -apple-system, BlinkMacSystemFont, &quot;Segoe UI&quot;, sans-serif" font-size="12" font-weight="600" text-anchor="middle" x="165" y="209">jUP rewards</text><path d="M 1110,570 L 1220,570" fill="none" marker-end="url(#arrow-icp)" stroke="#c88911" stroke-linecap="round" stroke-linejoin="round" stroke-width="3.2"/><rect fill="#f4f6f8" height="24" rx="12" ry="12" stroke="#d6dee8" stroke-width="1.2" width="80.0" x="1125.0" y="540"/><text fill="#1f2937" font-family="Inter, ui-sans-serif, system-ui, -apple-system, BlinkMacSystemFont, &quot;Segoe UI&quot;, sans-serif" font-size="11" font-weight="600" text-anchor="middle" x="1165.0" y="555">top-up ICP</text><circle cx="1050" cy="570" fill="#c88911" r="5" stroke="white" stroke-width="1.5"/><path d="M 1440,572 L 1550,572" fill="none" stroke="#178a64" stroke-linecap="round" stroke-linejoin="round" stroke-width="3.2"/><rect fill="#f4f6f8" height="24" rx="12" ry="12" stroke="#d6dee8" stroke-width="1.2" width="54.400000000000006" x="1467.8" y="543"/><text fill="#1f2937" font-family="Inter, ui-sans-serif, system-ui, -apple-system, BlinkMacSystemFont, &quot;Segoe UI&quot;, sans-serif" font-size="11" font-weight="600" text-anchor="middle" x="1495.0" y="555">cycles</text><circle cx="1520" cy="405" r="4.5" fill="#3a74b4" stroke="white" stroke-width="1.5"/><path d="M 1520,405 L 1080,405" fill="none" marker-end="url(#arrow-data)" stroke="#3a74b4" stroke-dasharray="7 6" stroke-linecap="round" stroke-linejoin="round" stroke-width="3.2"/><rect fill="#f4f6f8" height="24" rx="12" ry="12" stroke="#d6dee8" stroke-width="1.2" width="184" x="1208" y="373"/><text fill="#1f2937" font-family="Inter, ui-sans-serif, system-ui, -apple-system, BlinkMacSystemFont, &quot;Segoe UI&quot;, sans-serif" font-size="12" font-weight="600" text-anchor="middle" dominant-baseline="middle" x="1300" y="385">Observed cycles balances</text><path d="M 1050,570 L 1050,950 L 1248,950" fill="none" stroke="#c88911" stroke-linecap="round" stroke-linejoin="round" stroke-width="3.2"/><g transform="translate(1076,760) rotate(-90)"><rect fill="#f4f6f8" height="24" rx="12" ry="12" stroke="#d6dee8" stroke-width="1.2" width="247" x="-123.5" y="-12"/><text fill="#1f2937" font-family="Inter, ui-sans-serif, system-ui, -apple-system, BlinkMacSystemFont, &quot;Segoe UI&quot;, sans-serif" font-size="12" font-weight="600" text-anchor="middle" x="0" y="4">surplus after targets are covered</text></g><line stroke="white" stroke-linecap="round" stroke-width="8.0" x1="790" x2="790" y1="685" y2="707"/><line stroke="#c88911" stroke-linecap="round" stroke-width="3.0" x1="790" x2="790" y1="685" y2="707"/><line stroke="white" stroke-linecap="round" stroke-width="8.0" x1="790" x2="790" y1="743" y2="765"/><line stroke="#c88911" stroke-linecap="round" stroke-width="3.0" x1="790" x2="790" y1="743" y2="765"/><line stroke="white" stroke-linecap="round" stroke-width="8.0" x1="790" x2="790" y1="801" y2="823"/><line stroke="#c88911" stroke-linecap="round" stroke-width="3.0" x1="790" x2="790" y1="801" y2="823"/><line stroke="white" stroke-linecap="round" stroke-width="8.0" x1="790" x2="790" y1="859" y2="881"/><line stroke="#c88911" stroke-linecap="round" stroke-width="3.0" x1="790" x2="790" y1="859" y2="881"/><line stroke="white" stroke-linecap="round" stroke-width="8.0" x1="790" x2="790" y1="917" y2="939"/><line stroke="#c88911" stroke-linecap="round" stroke-width="3.0" x1="790" x2="790" y1="917" y2="939"/><line stroke="white" stroke-linecap="round" stroke-width="8.0" x1="790" x2="790" y1="975" y2="997"/><line stroke="#c88911" stroke-linecap="round" stroke-width="3.0" x1="790" x2="790" y1="975" y2="997"/><line stroke="white" stroke-linecap="round" stroke-width="8.0" x1="790" x2="790" y1="1033" y2="1055"/><line stroke="#c88911" stroke-linecap="round" stroke-width="3.0" x1="790" x2="790" y1="1033" y2="1055"/><line stroke="white" stroke-linecap="round" stroke-width="8.0" x1="790" x2="790" y1="1091" y2="1113"/><line stroke="#c88911" stroke-linecap="round" stroke-width="3.0" x1="790" x2="790" y1="1091" y2="1113"/><rect fill="#f4f6f8" height="24" rx="12" ry="12" stroke="#d6dee8" stroke-width="1.2" width="112.0" x="734.0" y="645"/><text fill="#1f2937" font-family="Inter, ui-sans-serif, system-ui, -apple-system, BlinkMacSystemFont, &quot;Segoe UI&quot;, sans-serif" font-size="11" font-weight="600" text-anchor="middle" x="790" y="662">to subaccount 1</text><rect fill="#f4f6f8" height="24" rx="12" ry="12" stroke="#d6dee8" stroke-width="1.2" width="131.2" x="919.4" y="645"/><text fill="#1f2937" font-family="Inter, ui-sans-serif, system-ui, -apple-system, BlinkMacSystemFont, &quot;Segoe UI&quot;, sans-serif" font-size="11" font-weight="600" text-anchor="middle" x="985" y="662">to default account</text><rect fill="white" x="20" y="603" width="145" height="54" rx="10" ry="10"/><text class="lbl" text-anchor="middle" x="90" y="623">Contributor</text><text class="sub" text-anchor="middle" x="90" y="646">funding source</text><rect fill="#eef4f2" height="20" rx="8" ry="8" width="132" x="398" y="440"/><text class="sub" x="405" y="454">allocates each round</text><line stroke="#d9e2ec" stroke-width="1.5" x1="50" x2="1790" y1="1360" y2="1360"/><line marker-end="url(#arrow-icp)" stroke="#c88911" stroke-width="3.2" x1="60" x2="94" y1="1376" y2="1376"/><text class="legend" x="106" y="1381">ICP</text><line marker-end="url(#arrow-cycles)" stroke="#178a64" stroke-width="3.2" x1="155" x2="189" y1="1376" y2="1376"/><text class="legend" x="201" y="1381">Cycles</text><line marker-end="url(#arrow-data)" stroke="#3a74b4" stroke-dasharray="7 6" stroke-width="3.2" x1="271" x2="305" y1="1376" y2="1376"/><text class="legend" x="317" y="1381">Observed data</text><line marker-end="url(#arrow-jup)" stroke="#8a56c2" stroke-width="3.2" x1="436" x2="470" y1="1376" y2="1376"/><text class="legend" x="482" y="1381">jUP token</text></svg>